<?xml version="1.0" encoding="UTF-8" standalone="no"?>
<!-- Created with Inkscape (http://www.inkscape.org/) -->

<svg
   width="210mm"
   height="297mm"
   viewBox="0 0 210 297"
   version="1.1"
   id="svg5"
   inkscape:version="1.1 (c68e22c387, 2021-05-23)"
   sodipodi:docname="moon.svg"
   xmlns:inkscape="http://www.inkscape.org/namespaces/inkscape"
   xmlns:sodipodi="http://sodipodi.sourceforge.net/DTD/sodipodi-0.dtd"
   xmlns="http://www.w3.org/2000/svg"
   xmlns:svg="http://www.w3.org/2000/svg">
  <sodipodi:namedview
     id="namedview7"
     pagecolor="#505050"
     bordercolor="#ffffff"
     borderopacity="1"
     inkscape:pageshadow="0"
     inkscape:pageopacity="0"
     inkscape:pagecheckerboard="1"
     inkscape:document-units="mm"
     showgrid="false"
     inkscape:zoom="0.66635802"
     inkscape:cx="425.44697"
     inkscape:cy="488.47615"
     inkscape:window-width="1920"
     inkscape:window-height="1017"
     inkscape:window-x="1912"
     inkscape:window-y="-8"
     inkscape:window-maximized="1"
     inkscape:current-layer="layer1" />
  <defs
     id="defs2" />
  <g
     inkscape:label="Layer 1"
     inkscape:groupmode="layer"
     id="layer1">
    <g
       id="g5351"
       transform="translate(-17.07353,1.5882353)"
       inkscape:export-filename="C:\Users\Marcos\Desktop\demo\resources\moon.png"
       inkscape:export-xdpi="96"
       inkscape:export-ydpi="96">
      <rect
         style="fill:none;fill-opacity:1;stroke:none;stroke-width:5.24726;stroke-linecap:round;stroke-linejoin:round;stroke-miterlimit:4;stroke-dasharray:none"
         id="rect5206"
         width="66.145836"
         height="66.145836"
         x="74.460297"
         y="113.10389" />
      <g
         id="g5182"
         transform="matrix(3.0849907,0,0,3.0849907,-123.85428,-286.22082)">
        <path
           id="path846"
           style="fill:#ffeeaa;stroke:#000000;stroke-width:5;stroke-linecap:round;stroke-linejoin:round;stroke-miterlimit:4;stroke-dasharray:none"
           d="m 274.62695,495.22852 a 34.515979,34.515979 0 0 0 -16.78125,4.37304 30.389067,30.389067 0 0 1 26.53516,30.14453 30.389067,30.389067 0 0 1 -26.5625,30.12891 34.515979,34.515979 0 0 0 16.80859,4.38672 34.515979,34.515979 0 0 0 34.51563,-34.51563 34.515979,34.515979 0 0 0 -34.51563,-34.51757 z"
           transform="scale(0.26458333)" />
        <path
           id="path1479"
           style="fill:#ffeeaa;stroke:none;stroke-width:5;stroke-linecap:round;stroke-linejoin:round;stroke-miterlimit:4;stroke-dasharray:none"
           d="m 274.62695,495.22852 a 34.515979,34.515979 0 0 0 -16.78125,4.37304 30.389067,30.389067 0 0 1 26.53516,30.14453 30.389067,30.389067 0 0 1 -26.5625,30.12891 34.515979,34.515979 0 0 0 16.80859,4.38672 34.515979,34.515979 0 0 0 34.51563,-34.51563 34.515979,34.515979 0 0 0 -34.51563,-34.51757 z"
           transform="scale(0.26458333)" />
        <path
           id="path1504"
           style="fill:#ffe475;fill-opacity:1;stroke:none;stroke-width:5;stroke-linecap:round;stroke-linejoin:round;stroke-miterlimit:4;stroke-dasharray:none"
           d="m 302.39062,536.87305 a 7.8786481,7.8786481 0 0 0 -7.8789,7.8789 7.8786481,7.8786481 0 0 0 6.04687,7.66016 34.515979,34.515979 0 0 0 7.2793,-13.35156 7.8786481,7.8786481 0 0 0 -5.44727,-2.1875 z"
           transform="scale(0.26458333)" />
        <circle
           style="fill:#ffdd55;fill-opacity:0.618474;stroke:none;stroke-width:1.32292;stroke-linecap:round;stroke-linejoin:round;stroke-miterlimit:4;stroke-dasharray:none"
           id="path1075"
           cx="76.235291"
           cy="133.01471"
           r="1.0919118" />
        <path
           id="circle1477"
           style="fill:#ffdd55;fill-opacity:0.618474;stroke:none;stroke-width:5.45454;stroke-linecap:round;stroke-linejoin:round;stroke-miterlimit:4;stroke-dasharray:none"
           d="m 274.60742,551.96289 a 30.389067,30.389067 0 0 1 -6.95312,4.82813 4.502085,4.502085 0 0 0 4.3457,3.34375 4.502085,4.502085 0 0 0 4.50391,-4.50196 4.502085,4.502085 0 0 0 -1.89453,-3.66992 4.502085,4.502085 0 0 0 -0.002,0 z"
           transform="scale(0.26458333)" />
      </g>
    </g>
  </g>
</svg>
